<svg width="70" height="70" viewBox="0 0 70 70" fill="none" xmlns="http://www.w3.org/2000/svg">
<rect width="70" height="70" rx="35" fill="#263238"/>
<path d="M13.52 34.82C14.0267 34.9 14.4867 35.1067 14.9 35.44C15.3267 35.7733 15.66 36.1867 15.9 36.68C16.1533 37.1733 16.28 37.7 16.28 38.26C16.28 38.9667 16.1 39.6067 15.74 40.18C15.38 40.74 14.8533 41.1867 14.16 41.52C13.48 41.84 12.6733 42 11.74 42H6.54V28.06H11.54C12.4867 28.06 13.2933 28.22 13.96 28.54C14.6267 28.8467 15.1267 29.2667 15.46 29.8C15.7933 30.3333 15.96 30.9333 15.96 31.6C15.96 32.4267 15.7333 33.1133 15.28 33.66C14.84 34.1933 14.2533 34.58 13.52 34.82ZM8.36 34.08H11.42C12.2733 34.08 12.9333 33.88 13.4 33.48C13.8667 33.08 14.1 32.5267 14.1 31.82C14.1 31.1133 13.8667 30.56 13.4 30.16C12.9333 29.76 12.26 29.56 11.38 29.56H8.36V34.08ZM11.58 40.5C12.4867 40.5 13.1933 40.2867 13.7 39.86C14.2067 39.4333 14.46 38.84 14.46 38.08C14.46 37.3067 14.1933 36.7 13.66 36.26C13.1267 35.8067 12.4133 35.58 11.52 35.58H8.36V40.5H11.58ZM20.6256 32.82C20.9456 32.1933 21.399 31.7067 21.9856 31.36C22.5856 31.0133 23.3123 30.84 24.1656 30.84V32.72H23.6856C21.6456 32.72 20.6256 33.8267 20.6256 36.04V42H18.8056V31.04H20.6256V32.82ZM27.2066 29.26C26.8599 29.26 26.5666 29.14 26.3266 28.9C26.0866 28.66 25.9666 28.3667 25.9666 28.02C25.9666 27.6733 26.0866 27.38 26.3266 27.14C26.5666 26.9 26.8599 26.78 27.2066 26.78C27.5399 26.78 27.8199 26.9 28.0466 27.14C28.2866 27.38 28.4066 27.6733 28.4066 28.02C28.4066 28.3667 28.2866 28.66 28.0466 28.9C27.8199 29.14 27.5399 29.26 27.2066 29.26ZM28.0866 31.04V42H26.2666V31.04H28.0866ZM33.4084 32.54V39C33.4084 39.5333 33.5218 39.9133 33.7484 40.14C33.9751 40.3533 34.3684 40.46 34.9284 40.46H36.2684V42H34.6284C33.6151 42 32.8551 41.7667 32.3484 41.3C31.8418 40.8333 31.5884 40.0667 31.5884 39V32.54H30.1684V31.04H31.5884V28.28H33.4084V31.04H36.2684V32.54H33.4084Z" fill="white"/>
<path d="M40.2936 27.2V42H38.4736V27.2H40.2936ZM53.3955 36.1C53.3955 36.4467 53.3755 36.8133 53.3355 37.2H44.5755C44.6421 38.28 45.0088 39.1267 45.6755 39.74C46.3555 40.34 47.1755 40.64 48.1355 40.64C48.9221 40.64 49.5755 40.46 50.0955 40.1C50.6288 39.7267 51.0021 39.2333 51.2155 38.62H53.1755C52.8821 39.6733 52.2955 40.5333 51.4155 41.2C50.5355 41.8533 49.4421 42.18 48.1355 42.18C47.0955 42.18 46.1621 41.9467 45.3355 41.48C44.5221 41.0133 43.8821 40.3533 43.4155 39.5C42.9488 38.6333 42.7155 37.6333 42.7155 36.5C42.7155 35.3667 42.9421 34.3733 43.3955 33.52C43.8488 32.6667 44.4821 32.0133 45.2955 31.56C46.1221 31.0933 47.0688 30.86 48.1355 30.86C49.1755 30.86 50.0955 31.0867 50.8955 31.54C51.6955 31.9933 52.3088 32.62 52.7355 33.42C53.1755 34.2067 53.3955 35.1 53.3955 36.1ZM51.5155 35.72C51.5155 35.0267 51.3621 34.4333 51.0555 33.94C50.7488 33.4333 50.3288 33.0533 49.7955 32.8C49.2755 32.5333 48.6955 32.4 48.0555 32.4C47.1355 32.4 46.3488 32.6933 45.6955 33.28C45.0555 33.8667 44.6888 34.68 44.5955 35.72H51.5155ZM61.5178 42L58.9178 37.92L56.4178 42H54.5178L58.0578 36.56L54.5178 31.04H56.5778L59.1778 35.1L61.6578 31.04H63.5578L60.0378 36.46L63.5778 42H61.5178Z" fill="#63757E"/>
</svg>
